HIERARCHY
ROOT Hips
{
  OFFSET -102.467 93.6631 130.069
  CHANNELS 6 Xposition Yposition Zposition Zrotation Xrotation Yrotation
  JOINT LeftUpLeg
  {
    OFFSET 8.64259 1.95398 -2.38835
    CHANNELS 3 Zrotation Xrotation Yrotation
    JOINT LeftLeg
    {
      OFFSET 43.7702 0 0
      CHANNELS 3 Zrotation Xrotation Yrotation
      JOINT LeftFoot
      {
        OFFSET 40.6238 0 0
        CHANNELS 3 Zrotation Xrotation Yrotation
        JOINT LeftToeBase
        {
          OFFSET 12.7242 0 0
          CHANNELS 3 Zrotation Xrotation Yrotation
          End Site
          {
            OFFSET 0 0 0
          }
        }
      }
    }
  }
  JOINT RightUpLeg
  {
    OFFSET -8.2249 1.95398 -2.59336
    CHANNELS 3 Zrotation Xrotation Yrotation
    JOINT RightLeg
    {
      OFFSET 43.5653 0 0
      CHANNELS 3 Zrotation Xrotation Yrotation
      JOINT RightFoot
      {
        OFFSET 40.6238 0 0
        CHANNELS 3 Zrotation Xrotation Yrotation
        JOINT RightToeBase
        {
          OFFSET 12.7242 0 0
          CHANNELS 3 Zrotation Xrotation Yrotation
          End Site
          {
            OFFSET 0 0 0
          }
        }
      }
    }
  }
  JOINT Spine
  {
    OFFSET 0.165834 0.87714 6.61349
    CHANNELS 3 Zrotation Xrotation Yrotation
    JOINT Spine1
    {
      OFFSET 7.38963 1.71661e-005 0
      CHANNELS 3 Zrotation Xrotation Yrotation
      JOINT Spine2
      {
        OFFSET 11.9445 1.14441e-005 0
        CHANNELS 3 Zrotation Xrotation Yrotation
        JOINT Spine3
        {
          OFFSET 14.7254 4.19617e-005 0
          CHANNELS 3 Zrotation Xrotation Yrotation
          JOINT Spine4
          {
            OFFSET 10.9679 0 0
            CHANNELS 3 Zrotation Xrotation Yrotation
            JOINT RightShoulder
            {
              OFFSET 2.46616 -1.6653 3.69651
              CHANNELS 3 Zrotation Xrotation Yrotation
              JOINT RightArm
              {
                OFFSET 13.0012 0 0
                CHANNELS 3 Zrotation Xrotation Yrotation
                JOINT RightForeArm
                {
                  OFFSET 28.7848 1.52588e-005 0
                  CHANNELS 3 Zrotation Xrotation Yrotation
                  JOINT RightHand
                  {
                    OFFSET 26.5688 1.52588e-005 0
                    CHANNELS 3 Zrotation Xrotation Yrotation
                    End Site
                    {
                      OFFSET 0 0 0
                    }
                  }
                }
              }
            }
            JOINT LeftShoulder
            {
              OFFSET 2.38034 -1.29275 -3.7523
              CHANNELS 3 Zrotation Xrotation Yrotation
              JOINT LeftArm
              {
                OFFSET 16.3182 6.10351e-005 0
                CHANNELS 3 Zrotation Xrotation Yrotation
                JOINT LeftForeArm
                {
                  OFFSET 27.0901 0 0
                  CHANNELS 3 Zrotation Xrotation Yrotation
                  JOINT LeftHand
                  {
                    OFFSET 24.5451 1.52588e-005 0
                    CHANNELS 3 Zrotation Xrotation Yrotation
                    End Site
                    {
                      OFFSET 0 0 0
                    }
                  }
                }
              }
            }
            JOINT Neck
            {
              OFFSET 5.0226 -0.0266342 0
              CHANNELS 3 Zrotation Xrotation Yrotation
              JOINT Head
              {
                OFFSET 6.69363 2.86102e-005 0
                CHANNELS 3 Zrotation Xrotation Yrotation
                End Site
                {
                  OFFSET 0 0 0
                }
              }
            }
          }
        }
      }
    }
  }
}
MOTION
Frames:	13
Frame Time:	0.0416667
-91.312 93.0708 -161.826 76.9936 -44.6959 84.8998 179.039 9.15944 89.1305 -32.7386 23.1113 6.36961 61.3386 15.0254 29.4968 67.8961 1.32453 14.2354 171.936 48.5608 91.8239 -52.4512 -10.3568 2.96672 64.5528 4.87058 15.3219 58.5796 -5.63622 4.12658 -0.561394 10.0613 -90.3004 6.74798 -1.24949 -0.542189 -4.92247 -1.27218 -0.486667 -27.4602 -1.02879 -0.892655 -7.44759 -1.02881 -0.892685 97.7212 -50.7413 -89.0368 22.3469 -11.8351 -8.303 -4.97122 -12.2724 -19.4783 -5.88088 -0.139682 -2.64936 -89.7164 -51.9161 79.2877 -0.644362 7.44273 -30.7223 17.1309 5.76108 -55.6092 0.629491 -0.166393 -7.26464 18.4834 0.468803 -7.77712 -10.0253 2.39483 7.50433 
-101.931 92.8093 -174.564 77.3297 -44.1437 79.2079 178.961 24.8937 83.7539 -41.0924 20.7298 3.11694 63.499 12.9428 24.8003 62.0419 -1.08917 7.97026 171.294 41.5759 86.7285 -73.8086 -18.1023 -0.00302982 59.6943 5.72548 13.8141 66.8021 -4.58424 9.84977 -0.0560732 9.86972 -89.8309 7.13183 -0.0392091 0.337445 -4.53911 -0.0243131 0.338834 -27.0741 -0.138809 0.310062 -7.06145 -0.13882 0.310061 97.8605 -48.1041 -89.0437 19.7213 -8.25983 -13.8129 -2.75815 -13.1955 -11.7688 -3.76656 -0.214032 1.56019 -90.5588 -51.0072 77.856 3.59734 6.08017 -33.4336 17.4166 6.64985 -55.1796 -1.56481 -0.0662918 -5.89564 10.4526 -1.94142 -4.39719 -5.52837 -0.9436 4.05209 
-110.072 92.8685 -184.495 80.8097 -45.6708 78.6615 179.696 30.6122 81.8011 -40.2488 19.0914 1.25675 63.9028 9.25232 17.9443 62.6773 -0.422504 9.78607 171.749 13.0744 81.4889 -61.9778 -9.16885 -1.5203 58.3672 8.46381 22.0023 35.7066 1.54511 15.3976 0.645121 9.59423 -89.7397 7.68425 1.40123 0.430825 -3.98628 1.41884 0.368726 -26.5237 1.20701 0.832053 -6.51109 1.207 0.832038 98.5579 -45.8748 -88.0958 15.4008 -9.10442 -14.4979 -4.22254 -12.7013 -16.1535 -5.10784 -0.167899 -1.6457 -88.2952 -50.4223 81.1089 6.42773 3.64779 -23.8684 17.642 5.65015 -56.2197 -3.80374 -0.0410409 -8.13276 3.0875 -3.77082 -4.01645 -3.30993 -3.03043 1.52416 
-119.046 91.9317 -195.283 71.6287 -47.6054 72.3853 -179.248 45.0217 83.3724 -42.6492 20.2081 -0.199503 63.0162 7.25231 13.5308 65.5881 1.04113 13.5398 175.86 5.25552 86.6592 -36.8523 -2.51831 -2.43551 63.0311 9.34778 27.1393 34.9047 2.74201 18.9373 1.09308 8.92009 -89.9587 9.03696 2.19882 -0.060501 -2.63207 2.19405 -0.15726 -25.182 2.11529 0.60345 -5.16933 2.1153 0.60345 99.8847 -45.3019 -85.9453 11.6815 -7.6621 -16.7454 -4.6397 -2.50026 -32.4441 -10.5974 -0.0887748 -4.2515 -86.9217 -50.5376 83.1851 7.21396 -11.1493 -10.916 15.2473 2.79481 -58.3096 3.16427 -0.205582 -6.77805 11.1062 -3.47741 -3.42102 -8.18764 -2.76143 3.18298 
-127.669 90.6789 -205.6 74.3417 -50.1427 75.6272 -174.886 46.0562 83.8304 -64.1342 18.3135 0.179919 61.6341 7.55897 12.7762 64.984 1.02983 13.5802 174.894 13.2943 88.4056 -46.0695 -8.87199 -0.712455 74.4228 -0.353701 11.6298 59.0788 -2.54037 11.1601 0.606362 9.62401 -90.2411 7.62829 1.10599 -0.532376 -4.04232 1.08148 -0.58055 -26.5811 1.21484 -0.175326 -6.56846 1.21483 -0.175334 99.2009 -48.1821 -86.8992 13.7634 -2.63616 -21.5891 -7.6754 -1.52531 -46.2246 -8.21018 -0.0830075 -4.25333 -86.6161 -51.1025 83.7309 1.21288 -21.654 -7.48113 13.3924 2.50689 -55.264 8.60128 -0.322698 -6.78652 19.7973 -1.41788 -7.96711 -9.66115 0.629793 9.78002 
-133.546 90.8335 -211.952 74.7521 -46.0806 76.3625 -178.523 35.3189 85.1185 -69.8952 13.0373 2.24425 62.6769 9.4729 13.0305 66.0649 -0.101006 10.7985 175.43 19.6967 91.9568 -48.7327 -1.55346 -0.587914 77.6537 -5.02126 5.90219 58.4921 -3.52719 8.7601 -0.245802 9.55151 -90.3545 7.7683 -0.645124 -0.665836 -3.90257 -0.673824 -0.636808 -26.4374 -0.41521 -0.82894 -6.42477 -0.4152 -0.828932 100.54 -52.7596 -84.6175 19.9613 -5.87129 -18.6027 -10.4961 -5.52855 -43.983 -13.1624 -0.326112 -2.40972 -88.9727 -51.0681 80.2208 -3.71535 -7.20602 -17.6086 11.1126 6.8537 -36.7249 4.85063 -0.249238 -6.90151 17.1803 -0.355744 -8.81676 -10.0194 1.61006 11.3079 
-136.795 93.336 -216.548 74.5441 -45.1164 76.3419 -179.538 14.3857 85.0819 -42.3129 12.6407 2.85617 64.181 9.87848 10.5465 65.6241 0.825297 13.2041 176.108 23.2807 90.9431 -46.0541 -2.25111 -0.51548 71.3915 -0.187708 8.20924 53.7195 -2.0355 10.4255 -0.647934 9.33139 -90.3133 8.20734 -1.43093 -0.536089 -3.46291 -1.45314 -0.472585 -26.0019 -1.20367 -0.94139 -5.9892 -1.20365 -0.941393 100.501 -55.9887 -84.5867 23.7956 -8.66326 -11.9477 -8.37731 -10.1584 -30.9813 -13.2501 -0.515183 -0.435336 -91.3162 -53.1405 77.2174 -7.88244 5.50276 -25.4025 16.2073 25.0321 -32.6575 3.44449 -0.169077 -5.73747 17.2299 0.174589 -10.1719 -11.1872 2.29728 13.1755 
-138.945 95.0704 -220.066 74.3993 -45.585 78.3969 -176.498 -0.31473 89.8778 -11.5523 19.1373 2.68322 63.1103 10.1403 16.6481 55.6405 -0.594459 8.17784 176.554 23.2674 92.5091 -40.7058 -3.35605 -0.0308376 69.2385 -0.211144 8.57637 46.3459 -2.44748 5.47086 -0.925202 8.9826 -90.3679 8.90412 -2.0096 -0.590852 -2.76536 -2.03362 -0.501801 -25.3094 -1.73909 -1.16763 -5.29674 -1.73908 -1.16764 99.45 -56.9136 -86.0686 25.4681 -11.5977 -6.49782 -6.46253 -16.6335 -20.0746 -7.93711 -0.408739 0.837164 -92.3259 -55.7136 76.356 -10.6018 15.3267 -26.6184 20.5536 31.6989 -38.1632 1.89041 -0.123733 -5.20396 15.6059 0.684381 -13.5414 -12.4269 3.23033 15.8564 
-141.441 95.6317 -222.842 75.5247 -45.1159 80.7097 -173.982 1.32232 90.9784 -11.3611 22.1351 1.67739 66.2254 10.6184 15.9791 47.2673 -0.984039 5.15685 176.84 24.3455 94.0259 -39.0376 -2.51687 0.251143 66.5243 0.0575029 8.04842 45.7226 -2.64429 4.59359 -1.05296 8.69564 -90.3858 9.47734 -2.27325 -0.593151 -2.19171 -2.29715 -0.492492 -24.7387 -1.98987 -1.24916 -4.72604 -1.98987 -1.24916 100.445 -57.6989 -84.6194 27.374 -9.52613 -1.18886 -5.60172 -16.9187 -16.493 -3.99873 -0.191934 0.479037 -93.2334 -57.0476 75.4025 -10.4384 21.9213 -28.9849 20.059 31.3041 -41.3426 -5.4706 -0.0482692 -5.93265 14.4985 0.15462 -14.9283 -13.3374 2.81931 16.1073 
-142.482 96.4976 -223.962 77.3218 -43.0248 81.4362 -175.968 0.102964 89.8062 -8.73424 22.2106 2.97699 63.2586 9.48783 15.8387 46.717 -1.48054 2.78525 176.335 22.5812 92.802 -36.2338 -1.13652 0.63755 67.0919 1.68837 10.176 44.3075 -2.36551 4.56218 -1.0951 8.41832 -90.4021 10.0328 -2.36525 -0.599947 -1.63612 -2.38937 -0.495217 -24.1842 -2.07555 -1.2833 -4.17157 -2.07555 -1.28332 100.108 -56.8939 -85.1286 30.1526 -8.3652 3.60748 -4.16623 -13.9363 -15.0668 -5.62832 -0.371407 2.67239 -93.5769 -57.6916 75.0807 -8.69993 24.2422 -34.2206 18.5245 33.0782 -40.4434 -8.10245 -0.05746 -5.05999 13.8636 -0.146516 -11.726 -14.3761 1.6362 14.1192 
-142.319 96.8553 -223.635 77.7149 -45.4033 83.6415 -174.594 -0.62813 91.6678 -8.43993 21.652 3.07193 62.9186 9.40439 16.521 48.4201 -1.46015 3.55196 176.443 19.5784 93.9993 -32.6595 0.206316 1.15021 68.3643 3.84868 15.0422 39.5288 -0.64531 7.45951 -0.892131 7.96604 -90.6797 10.9305 -2.09049 -1.15473 -0.739231 -2.1393 -1.06157 -23.2794 -1.64685 -1.72965 -3.26676 -1.64685 -1.72966 99.4345 -55.1125 -86.1742 30.9983 -10.3978 5.09849 -3.73685 -16.0775 -13.3531 -2.22724 -0.106938 0.813432 -92.7546 -58.6108 76.4144 -6.53359 24.2852 -33.8584 19.088 30.2781 -42.2914 -6.35129 -0.012809 -6.56568 11.7212 0.722436 -9.99815 -17.2247 1.53688 13.6812 
-141.636 96.6307 -222.196 78.6952 -48.5353 84.9818 -174.59 -3.02001 91.8179 -8.48744 18.1713 3.8387 62.0932 9.87107 16.7573 51.9811 -1.45219 4.78032 177.238 16.9096 94.8009 -31.7962 0.120726 0.662061 70.4719 4.7847 17.9886 37.8903 -0.0296453 8.80379 -0.835491 7.68147 -90.8134 11.497 -2.04241 -1.41129 -0.172963 -2.10253 -1.32003 -22.71 -1.52391 -1.95983 -2.69732 -1.5239 -1.95984 99.3436 -54.8033 -86.3236 30.116 -9.62299 4.54472 -2.52128 -12.1681 -12.8511 -5.69439 -0.315107 1.28241 -90.8102 -58.609 79.0607 -4.88766 20.7412 -32.3242 18.2136 27.5781 -41.3849 -4.48054 -0.0484108 -6.67557 7.45432 2.43898 -9.08183 -15.8277 2.78095 14.3349 
-140.513 96.07 -220.735 81.3398 -51.7255 87.4197 -176.051 -0.298247 91.8207 -20.3045 13.7816 3.17043 61.7026 11.5254 17.2409 58.1058 -0.0571865 10.3962 177.063 14.1619 94.8362 -33.3354 -0.939802 0.715146 73.3036 5.39898 19.7667 43.1874 0.185835 12.4459 -0.648972 7.79622 -91.0393 11.2634 -1.77528 -1.8936 -0.407603 -1.85689 -1.81365 -22.9363 -1.12427 -2.33942 -2.92368 -1.12428 -2.33942 99.0849 -53.3943 -86.7804 29.4147 -10.4069 4.49787 -1.31071 -4.97549 -15.8582 -6.86149 -0.273515 -0.580665 -89.0384 -58.7515 81.505 -3.81904 15.531 -31.016 18.3411 26.9863 -39.7001 -2.881 -0.0810116 -6.51337 6.57242 3.75443 -7.09349 -14.903 3.65194 15.1152 
